PathFileType	4	(X/Y/Z)	/Users/niels/Desktop/University/Third Semester/Perception and Action/Exam/Gymnastics Motion Tracking/Code for Gym Tracking/Analyzed Data/Webcam_Backflip/id3_4_trajectory_Sports2D/id3_4_trajectory_Sports2D_px_person00.trc
DataRate	CameraRate	NumFrames	NumMarkers	Units	OrigDataRate	OrigDataStartFrame	OrigNumFrames
29.810126582278482	29.810126582278482	10	22	m	29.810126582278482	138	158
Frame#	Time	Hip			RHip			RKnee			RAnkle			RBigToe			RSmallToe			RHeel			LHip			LKnee			LAnkle			LBigToe			LSmallToe			LHeel			Neck			Head			Nose			RShoulder			RElbow			RWrist			LShoulder			LElbow			LWrist		
		X1	Y1	Z1	X2	Y2	Z2	X3	Y3	Z3	X4	Y4	Z4	X5	Y5	Z5	X6	Y6	Z6	X7	Y7	Z7	X8	Y8	Z8	X9	Y9	Z9	X10	Y10	Z10	X11	Y11	Z11	X12	Y12	Z12	X13	Y13	Z13	X14	Y14	Z14	X15	Y15	Z15	X16	Y16	Z16	X17	Y17	Z17	X18	Y18	Z18	X19	Y19	Z19	X20	Y20	Z20	X21	Y21	Z21	X22	Y22	Z22
138	4.629299363057325	0.9749782069686345	-0.5732892964966353	0.0	0.9754632855818669	-0.5737044869868666	0.0	1.018601182014994	-0.6726490033972897	0.0	0.962803102709838	-0.7790428477650924	0.0	1.0086996866493982	-0.8007982577599282	0.0	0.996969962203699	-0.8038404007990637	0.0	0.9507473530384046	-0.7929511990841461	0.0	0.9771088967305295	-0.5741827265150435	0.0	0.9765145064142036	-0.6736232956237944	0.0	0.9563895111533024	-0.7820396735798757	0.0	1.00760612642122	-0.8044769906124815	0.0	1.0033845376621022	-0.7993415179827894	0.0	0.9456217296969343	-0.7954115027463873	0.0	0.9719673708469119	-0.4116852219840918	0.0	1.0008430960156864	-0.35024341773865664	0.0	1.0094318918381413	-0.3928265112980581	0.0	0.9550320242777934	-0.43378127217126156	0.0	0.9425888047769407	-0.5121781101682544	0.0	0.9743825158166072	-0.5735646231239248	0.0	0.9720606372769985	-0.4346735667534853	0.0	0.9775910604185599	-0.5127810370670453	0.0	1.003852444670053	-0.5718713541063453	0.0
139	4.662845010615711	0.9760518502110747	-0.5680623811395825	0.0	0.9759290539550137	-0.5682362623720404	0.0	1.014968278756468	-0.6694414951388501	0.0	0.9646173616009279	-0.7777400832483351	0.0	1.0107138284752344	-0.7981715163713419	0.0	0.9987701184802867	-0.8013917051194154	0.0	0.9529661703614662	-0.7920888888040485	0.0	0.9786864198801903	-0.5686799402480234	0.0	0.9813645614644022	-0.6691826795149204	0.0	0.9578355675147152	-0.7772534708066987	0.0	1.0086791099201915	-0.799482426044388	0.0	1.0038255054687586	-0.7942489487559243	0.0	0.9467193271285262	-0.7908486198641731	0.0	0.9736008919042298	-0.4058724605947398	0.0	1.0011855476733396	-0.34388323664536696	0.0	1.0107698776732752	-0.3861534733841941	0.0	0.9569197769733336	-0.4280198663593935	0.0	0.9453047780287019	-0.5060182961205801	0.0	0.9788705416554982	-0.5673147819676786	0.0	0.9740612960511481	-0.4291369647633993	0.0	0.9800054255529814	-0.5066739856277379	0.0	1.0056592117618037	-0.5665506149647308	0.0
140	4.6963906581740975	0.9772286948766378	-0.5632075134362473	0.0	0.9761424128201699	-0.5631904119356307	0.0	1.0095954751591116	-0.6668555361994176	0.0	0.9661979224052006	-0.7775776919374588	0.0	1.0119621011458046	-0.7969634041588529	0.0	0.9996972267737455	-0.8004273120712957	0.0	0.9550615066395249	-0.7924327403996771	0.0	0.9805334877941884	-0.5634993295910464	0.0	0.9877575220581504	-0.6649497585724823	0.0	0.9595973380690449	-0.7722253829340558	0.0	1.0092713750530202	-0.7947238982902372	0.0	1.0036940432444017	-0.7895787146648914	0.0	0.947918654556578	-0.7859996339235641	0.0	0.9754841478566123	-0.4005182898782071	0.0	1.001675455622794	-0.33774876547012445	0.0	1.012349630480093	-0.3797568250205754	0.0	0.9592669676346738	-0.42273128293609374	0.0	0.9480481905296542	-0.5000295993110512	0.0	0.982326123119754	-0.5616897794325278	0.0	0.9761725579164549	-0.42388001999842756	0.0	0.9820383714849644	-0.5005766819518166	0.0	1.007205215367049	-0.5609369559495985	0.0
141	4.729936305732484	0.9785950366576928	-0.5592513662707073	0.0	0.9762373649507501	-0.5591140277153818	0.0	1.0031165652199596	-0.6649891649398759	0.0	0.9672036296260638	-0.7783250140627168	0.0	1.0122079681616483	-0.7970108324690043	0.0	0.9995560581487999	-0.8007939024331567	0.0	0.9565703213638803	-0.7936661336942276	0.0	0.982780499710696	-0.5592270960770342	0.0	0.9955051425384985	-0.6610226188234041	0.0	0.961718068879834	-0.7668998144765821	0.0	1.0094498156013416	-0.7903384039816825	0.0	1.003164112331274	-0.7854032925803117	0.0	0.9495174556638111	-0.7807763473645428	0.0	0.97759958919512	-0.3961313932532137	0.0	1.0024794011047915	-0.33234626794001104	0.0	1.014177086239793	-0.3741973496844265	0.0	0.9620886645259435	-0.41844104905450813	0.0	0.9508849563166873	-0.4948988183503276	0.0	0.9851075008259359	-0.5572654153087483	0.0	0.978341493543312	-0.4193765066543015	0.0	0.9837373050329097	-0.49510074709575386	0.0	1.0087003024390162	-0.5554520254973833	0.0
142	4.763481953290871	0.980133105068889	-0.5566202366974794	0.0	0.9762986512085756	-0.5564110140038947	0.0	0.996383731640311	-0.6638874221405253	0.0	0.9674855997816854	-0.7797283819671447	0.0	1.0115351171045832	-0.7979208790167136	0.0	0.9984673370402924	-0.8020761369889805	0.0	0.9572591238330119	-0.7954463069175985	0.0	0.9854279202304428	-0.5563216944821844	0.0	1.0039069653774815	-0.6575492811688508	0.0	0.9642118248686288	-0.7614665795325436	0.0	1.009481072869466	-0.7864841726741665	0.0	1.0026419142153793	-0.7817463107356839	0.0	0.9519508734365726	-0.7753918675898624	0.0	0.9799085550631498	-0.3930360373936487	0.0	1.0036335866355313	-0.3280842281115242	0.0	1.016227637941846	-0.3698671745933009	0.0	0.9653177331457975	-0.4155237316200015	0.0	0.9538413421564882	-0.49116896815515537	0.0	0.9875967922226426	-0.5544390660765762	0.0	0.9805491027484421	-0.4160211869486303	0.0	0.9851911922856553	-0.4908215349348902	0.0	1.010322712747921	-0.5506000390947741	0.0
143	4.7970276008492565	0.9817291723582682	-0.5555054864530237	0.0	0.9764241160171009	-0.5552348254021783	0.0	0.9902750222694023	-0.6635510018528682	0.0	0.9671382120033036	-0.7815389102749783	0.0	1.0101705298606476	-0.7993826411469643	0.0	0.9966742440815084	-0.8038664086870669	0.0	0.9571814513463756	-0.7974982956290708	0.0	0.9883024953297775	-0.5549846825663205	0.0	1.0117926557060621	-0.6548919520679967	0.0	0.9669848703011589	-0.7566206306739092	0.0	1.0096579834674275	-0.7836411962740714	0.0	1.0025658093352598	-0.7789783723660039	0.0	0.9554206670268522	-0.7706234537105042	0.0	0.9823576976630831	-0.3913515124267575	0.0	1.0050096101268464	-0.32522123410514625	0.0	1.018407078060873	-0.3669198761403214	0.0	0.9687870113921115	-0.4141465134732196	0.0	0.956881223027692	-0.4891380260744744	0.0	0.9900553451637981	-0.553375418508166	0.0	0.98283537131903	-0.4140859600694172	0.0	0.986500388500111	-0.48812511240619133	0.0	1.012140775589714	-0.5468595545592209	0.0
144	4.830573248407643	0.983246841771083	-0.5558279545696182	0.0	0.9767607765737737	-0.5554848952030196	0.0	0.9854547997471211	-0.6639607507363731	0.0	0.9664596468643959	-0.7835446333450974	0.0	1.0083875395618154	-0.8013329697635165	0.0	0.9944736217505405	-0.8059804853724325	0.0	0.9566479847114798	-0.7996719534527215	0.0	0.9910898189904731	-0.5551601633529895	0.0	1.0179021357070654	-0.6536170869731663	0.0	0.969757395305976	-0.7535510739384649	0.0	1.0100179932185582	-0.7826129621856153	0.0	1.0030598188056845	-0.7778813839559637	0.0	0.9595399067249042	-0.7677298479528045	0.0	0.9848658051667224	-0.39104054447311976	0.0	1.006377964923742	-0.3237962990326384	0.0	1.0205509467331355	-0.36527262662433085	0.0	0.9722396214066027	-0.4142735968923867	0.0	0.959886739251042	-0.48885625246635533	0.0	0.9925517440178224	-0.554014072486509	0.0	0.9852386508482648	-0.41366963578343374	0.0	0.9877495295435736	-0.4871276227442519	0.0	1.014095526474181	-0.544574011104977	0.0
145	4.86411889596603	0.9845695026318037	-0.5573486040553565	0.0	0.9774279052511425	-0.5569131017029768	0.0	0.9822356630835928	-0.6650962017104443	0.0	0.9658061620815108	-0.785611151457326	0.0	1.0064778754220365	-0.8038393201211693	0.0	0.9922262287036809	-0.8084334248711129	0.0	0.9561225140749644	-0.8019193740212683	0.0	0.9933960020109095	-0.5566191130167911	0.0	1.0213586474276377	-0.6542131698205209	0.0	0.9720915699740362	-0.7533609128983009	0.0	1.0102282583490825	-0.783990520936273	0.0	1.0037985752202598	-0.7791372585006174	0.0	0.9634306954044104	-0.7678404772531853	0.0	0.9873033779566271	-0.39196897469854197	0.0	1.00753239007082	-0.3236025959379843	0.0	1.022477765114749	-0.3647134616590782	0.0	0.9753921129814016	-0.4157065725454733	0.0	0.9626657593064831	-0.49015553621643	0.0	0.9949785292334731	-0.5561066396198551	0.0	0.9876598135427671	-0.414669212901694	0.0	0.9889887309489819	-0.48769022437977383	0.0	1.016048730098784	-0.5439135878623914	0.0
146	4.897664543524416	0.9856211268361352	-0.5598294088644856	0.0	0.9784373582392057	-0.5592801808995342	0.0	0.9805940489555188	-0.6669400280344125	0.0	0.9654303715324107	-0.7877004340760951	0.0	1.004677951832614	-0.8068787499855912	0.0	0.990266251117784	-0.8112529165243622	0.0	0.9560037611374963	-0.804232359018555	0.0	0.994854066605168	-0.5590962224352616	0.0	1.0218624146518156	-0.6567850760384273	0.0	0.9736213454412681	-0.7564040743000681	0.0	1.009884002889596	-0.7876979628760087	0.0	1.0043265884755155	-0.7828519838035783	0.0	0.9662763149777817	-0.7713185874145293	0.0	0.9894994629813483	-0.3939571687207808	0.0	1.0083657049780395	-0.32431252578683595	0.0	1.0240521481552585	-0.3650427280864547	0.0	0.9780200113278098	-0.4181627627467534	0.0	0.9650073905954575	-0.49270670241968484	0.0	0.997104353600056	-0.5592774299640489	0.0	0.9898375361597028	-0.41683158109853424	0.0	0.9902214149927917	-0.4895170102428618	0.0	1.0178477006788766	-0.5449285293065967	0.0
147	4.931210191082802	0.9864188278281676	-0.5631218154760248	0.0	0.9797297791074503	-0.5624447368097569	0.0	0.9802638658845311	-0.6694670248443468	0.0	0.9654288605654225	-0.7898858815662221	0.0	1.0031757708351623	-0.8102715673504344	0.0	0.9888174197315737	-0.8143547202928023	0.0	0.956418350981978	-0.806658779925906	0.0	0.9953023386666301	-0.5624068241134965	0.0	1.0196543893277927	-0.6609793689944635	0.0	0.9742956112072202	-0.7622084274767863	0.0	1.0089726467118978	-0.7930555305355559	0.0	1.0045016162342817	-0.7884909054526984	0.0	0.9677908220246538	-0.777666459619311	0.0	0.991284736365909	-0.39678460199850524	0.0	1.0088280150589135	-0.3257200077734062	0.0	1.025218262632033	-0.36617326280298984	0.0	0.9799992503973279	-0.42134713661279743	0.0	0.9667617529716255	-0.4961467270443892	0.0	0.9986341122497793	-0.5631305724406848	0.0	0.9915177345374321	-0.4198428827462605	0.0	0.9913800148836155	-0.49230469403080335	0.0	1.0193495469256957	-0.5476087352821716	0.0
